<svg width="1920" height="139" viewBox="0 0 1920 139" fill="none" xmlns="http://www.w3.org/2000/svg">
<path fill-rule="evenodd" clip-rule="evenodd" d="M63.8481 0.399902C62.272 13.9556 48.6147 24.5498 32 24.5498C15.3853 24.5498 1.72803 13.9556 0.151855 0.399902H0V139H1920V9.10889C1918.5 6.41943 1917.51 3.48633 1917.15 0.399902H1916.85C1915.27 13.9556 1901.61 24.5498 1885 24.5498C1868.39 24.5498 1854.73 13.9556 1853.15 0.399902H1852.85C1851.27 13.9556 1837.61 24.5498 1821 24.5498C1804.39 24.5498 1790.73 13.9556 1789.15 0.399902H1788.85C1787.27 13.9556 1773.61 24.5498 1757 24.5498C1740.39 24.5498 1726.73 13.9556 1725.15 0.399902H1724.85C1723.27 13.9556 1709.61 24.5498 1693 24.5498C1676.39 24.5498 1662.73 13.9556 1661.15 0.399902H1660.85C1659.27 13.9556 1645.61 24.5498 1629 24.5498C1612.39 24.5498 1598.73 13.9556 1597.15 0.399902H1596.85C1595.27 13.9556 1581.61 24.5498 1565 24.5498C1549.26 24.5498 1536.17 15.042 1533.5 2.51562C1530.83 15.042 1517.74 24.5498 1502 24.5498C1485.39 24.5498 1471.73 13.9556 1470.15 0.399902H1469.85C1468.27 13.9556 1454.61 24.5498 1438 24.5498C1421.39 24.5498 1407.73 13.9556 1406.15 0.399902H1405.85C1404.27 13.9556 1390.61 24.5498 1374 24.5498C1357.39 24.5498 1343.73 13.9556 1342.15 0.399902H1341.85C1340.27 13.9556 1326.61 24.5498 1310 24.5498C1293.39 24.5498 1279.73 13.9556 1278.15 0.399902H1277.85C1276.27 13.9556 1262.61 24.5498 1246 24.5498C1229.39 24.5498 1215.73 13.9556 1214.15 0.399902H1213.85C1212.27 13.9556 1198.61 24.5498 1182 24.5498C1165.39 24.5498 1151.73 13.9556 1150.15 0.399902H1149.85C1148.27 13.9556 1134.61 24.5498 1118 24.5498C1101.39 24.5498 1087.73 13.9556 1086.15 0.399902H1085.85C1084.27 13.9556 1070.61 24.5498 1054 24.5498C1037.39 24.5498 1023.73 13.9556 1022.15 0.399902H1021.85C1020.27 13.9556 1006.61 24.5498 990 24.5498C973.386 24.5498 959.729 13.9556 958.152 0.399902H957.848C956.271 13.9556 942.614 24.5498 926 24.5498C909.386 24.5498 895.729 13.9556 894.152 0.399902H893.848C892.271 13.9556 878.614 24.5498 862 24.5498C845.386 24.5498 831.729 13.9556 830.152 0.399902H829.848C828.271 13.9556 814.614 24.5498 798 24.5498C782.26 24.5498 769.175 15.042 766.5 2.51562C763.825 15.042 750.74 24.5498 735 24.5498C718.386 24.5498 704.729 13.9556 703.152 0.399902H702.848C701.271 13.9556 687.614 24.5498 671 24.5498C654.386 24.5498 640.729 13.9556 639.152 0.399902H638.848C637.271 13.9556 623.614 24.5498 607 24.5498C590.386 24.5498 576.729 13.9556 575.152 0.399902H574.848C573.271 13.9556 559.614 24.5498 543 24.5498C526.386 24.5498 512.729 13.9556 511.152 0.399902H510.848C509.271 13.9556 495.614 24.5498 479 24.5498C462.385 24.5498 448.728 13.9556 447.152 0.399902H446.848C445.271 13.9556 431.614 24.5498 415 24.5498C398.385 24.5498 384.728 13.9556 383.152 0.399902H382.848C381.271 13.9556 367.614 24.5498 351 24.5498C334.385 24.5498 320.728 13.9556 319.152 0.399902H318.848C317.271 13.9556 303.614 24.5498 287 24.5498C271.26 24.5498 258.175 15.042 255.5 2.51562C252.825 15.042 239.74 24.5498 224 24.5498C207.385 24.5498 193.728 13.9556 192.152 0.399902H191.848C190.272 13.9556 176.615 24.5498 160 24.5498C143.385 24.5498 129.728 13.9556 128.152 0.399902H127.848C126.272 13.9556 112.615 24.5498 96 24.5498C79.3853 24.5498 65.728 13.9556 64.1519 0.399902H63.8481Z" fill="#7950FF"/>
</svg>
