<svg width="1920" height="75" viewBox="0 0 1920 75" fill="none" xmlns="http://www.w3.org/2000/svg">
<path d="M-16 65.3067C0.154247 65.3067 18.93 62.4405 34.7501 66.0254C44.0939 68.1428 68.2533 73.4973 76.8002 66.5645C91.2416 54.8505 96.6685 47.6884 117.763 46.0797C135.537 44.7242 151.081 44.417 166.7 52.3689C182.379 60.3508 199.767 70.8587 218.176 63.8691C227.633 60.2785 234.109 51.0374 243.188 46.6188C258.009 39.4056 276.885 38.6692 293.032 39.6108C315.51 40.9217 337.437 54.9839 360.276 58.119C388.349 61.9727 406.217 37.881 432.776 36.3763C458.476 34.9204 483.017 35.1029 506.545 46.0797C525.554 54.9481 543.313 66.3176 564.727 65.3067C569.939 65.0606 573.975 62.0684 577.776 58.8378C585.688 52.1152 595.835 52.3689 605.689 52.3689C630.829 52.3689 655.729 51.1 680.364 57.0409C705.63 63.1337 732.739 69.3265 759.027 64.5879C789.57 59.0823 813.308 35.2565 845.302 33.1419C874.2 31.2319 916.531 29.8753 941.727 45.9C955.673 54.769 964.107 66.609 981.784 68.3614C998.302 69.999 1009.26 66.1948 1024.56 60.6347C1046.61 52.6195 1068.28 48.7254 1091.8 49.1344C1109.86 49.4485 1125.73 57.6744 1142.92 62.0722C1187.89 73.5782 1207.16 25.5935 1243.15 9.24293C1279.55 -7.29808 1322.78 29.1541 1355.7 39.4311C1374.42 45.2719 1388.26 46.1319 1406.63 41.228C1424.7 36.4065 1448.56 32.3472 1466.99 36.9154C1494.11 43.6378 1518.04 63.515 1544.93 68.3614C1554.19 70.0301 1577.01 56.5167 1586.98 53.8064C1603.72 49.256 1619 45.9 1636.28 45.9C1656.74 45.9 1734.99 67.2413 1745.75 45.9C1756.52 24.5587 1819.9 36.9154 1819.9 36.9154C1841.4 41.6872 1853.45 44.3626 1874.95 49.1344C1896.45 53.9063 1920 33.1419 1920 33.1419" stroke="#7F47C7" stroke-width="10" stroke-linecap="round" stroke-dasharray="30 30"/>
</svg>
