<svg width="1920" height="51" viewBox="0 0 1920 51" fill="none" xmlns="http://www.w3.org/2000/svg">
<path fill-rule="evenodd" clip-rule="evenodd" d="M27 25.5C27 39.5833 12.6731 51 -5 51C-22.6731 51 -37 39.5833 -37 25.5C-37 11.4167 -22.6731 0 -5 0C12.6731 0 27 11.4167 27 25.5ZM91 25.5C91 39.5833 76.6731 51 59 51C41.3269 51 27 39.5833 27 25.5C27 11.4167 41.3269 0 59 0C76.6731 0 91 11.4167 91 25.5ZM155 25.5C155 39.5833 140.673 51 123 51C105.327 51 91 39.5833 91 25.5C91 11.4167 105.327 0 123 0C140.673 0 155 11.4167 155 25.5ZM282 25.5C282 39.5833 267.673 51 250 51C234.26 51 221.175 41.9445 218.5 30.0148C215.825 41.9445 202.74 51 187 51C169.327 51 155 39.5833 155 25.5C155 11.4167 169.327 0 187 0C202.74 0 215.825 9.05546 218.5 20.9852C221.175 9.05546 234.26 0 250 0C267.673 0 282 11.4167 282 25.5ZM346 25.5C346 39.5833 331.673 51 314 51C296.327 51 282 39.5833 282 25.5C282 11.4167 296.327 0 314 0C331.673 0 346 11.4167 346 25.5ZM410 25.5C410 39.5833 395.673 51 378 51C360.327 51 346 39.5833 346 25.5C346 11.4167 360.327 0 378 0C395.673 0 410 11.4167 410 25.5ZM474 25.5C474 39.5833 459.673 51 442 51C424.327 51 410 39.5833 410 25.5C410 11.4167 424.327 0 442 0C459.673 0 474 11.4167 474 25.5ZM538 25.5C538 39.5833 523.673 51 506 51C488.327 51 474 39.5833 474 25.5C474 11.4167 488.327 0 506 0C523.673 0 538 11.4167 538 25.5ZM602 25.5C602 39.5833 587.673 51 570 51C552.327 51 538 39.5833 538 25.5C538 11.4167 552.327 0 570 0C587.673 0 602 11.4167 602 25.5ZM666 25.5C666 39.5833 651.673 51 634 51C616.327 51 602 39.5833 602 25.5C602 11.4167 616.327 0 634 0C651.673 0 666 11.4167 666 25.5ZM793 25.5C793 39.5833 778.673 51 761 51C745.26 51 732.175 41.9445 729.5 30.0148C726.825 41.9445 713.74 51 698 51C680.327 51 666 39.5833 666 25.5C666 11.4167 680.327 0 698 0C713.74 0 726.825 9.05547 729.5 20.9852C732.175 9.05547 745.26 0 761 0C778.673 0 793 11.4167 793 25.5ZM857 25.5C857 39.5833 842.673 51 825 51C807.327 51 793 39.5833 793 25.5C793 11.4167 807.327 0 825 0C842.673 0 857 11.4167 857 25.5ZM921 25.5C921 39.5833 906.673 51 889 51C871.327 51 857 39.5833 857 25.5C857 11.4167 871.327 0 889 0C906.673 0 921 11.4167 921 25.5ZM985 25.5C985 39.5833 970.673 51 953 51C935.327 51 921 39.5833 921 25.5C921 11.4167 935.327 0 953 0C970.673 0 985 11.4167 985 25.5ZM1049 25.5C1049 39.5833 1034.67 51 1017 51C999.327 51 985 39.5833 985 25.5C985 11.4167 999.327 0 1017 0C1034.67 0 1049 11.4167 1049 25.5ZM1113 25.5C1113 39.5833 1098.67 51 1081 51C1063.33 51 1049 39.5833 1049 25.5C1049 11.4167 1063.33 0 1081 0C1098.67 0 1113 11.4167 1113 25.5ZM1177 25.5C1177 39.5833 1162.67 51 1145 51C1127.33 51 1113 39.5833 1113 25.5C1113 11.4167 1127.33 0 1145 0C1162.67 0 1177 11.4167 1177 25.5ZM1241 25.5C1241 39.5833 1226.67 51 1209 51C1191.33 51 1177 39.5833 1177 25.5C1177 11.4167 1191.33 0 1209 0C1226.67 0 1241 11.4167 1241 25.5ZM1305 25.5C1305 39.5833 1290.67 51 1273 51C1255.33 51 1241 39.5833 1241 25.5C1241 11.4167 1255.33 0 1273 0C1290.67 0 1305 11.4167 1305 25.5ZM1369 25.5C1369 39.5833 1354.67 51 1337 51C1319.33 51 1305 39.5833 1305 25.5C1305 11.4167 1319.33 0 1337 0C1354.67 0 1369 11.4167 1369 25.5ZM1433 25.5C1433 39.5833 1418.67 51 1401 51C1383.33 51 1369 39.5833 1369 25.5C1369 11.4167 1383.33 0 1401 0C1418.67 0 1433 11.4167 1433 25.5ZM1560 25.5C1560 39.5833 1545.67 51 1528 51C1512.26 51 1499.17 41.9445 1496.5 30.0148C1493.83 41.9445 1480.74 51 1465 51C1447.33 51 1433 39.5833 1433 25.5C1433 11.4167 1447.33 0 1465 0C1480.74 0 1493.83 9.05547 1496.5 20.9852C1499.17 9.05547 1512.26 0 1528 0C1545.67 0 1560 11.4167 1560 25.5ZM1624 25.5C1624 39.5833 1609.67 51 1592 51C1574.33 51 1560 39.5833 1560 25.5C1560 11.4167 1574.33 0 1592 0C1609.67 0 1624 11.4167 1624 25.5ZM1688 25.5C1688 39.5833 1673.67 51 1656 51C1638.33 51 1624 39.5833 1624 25.5C1624 11.4167 1638.33 0 1656 0C1673.67 0 1688 11.4167 1688 25.5ZM1752 25.5C1752 39.5833 1737.67 51 1720 51C1702.33 51 1688 39.5833 1688 25.5C1688 11.4167 1702.33 0 1720 0C1737.67 0 1752 11.4167 1752 25.5ZM1816 25.5C1816 39.5833 1801.67 51 1784 51C1766.33 51 1752 39.5833 1752 25.5C1752 11.4167 1766.33 0 1784 0C1801.67 0 1816 11.4167 1816 25.5ZM1880 25.5C1880 11.4167 1865.67 0 1848 0C1830.33 0 1816 11.4167 1816 25.5C1816 39.5833 1830.33 51 1848 51C1865.67 51 1880 39.5833 1880 25.5ZM1880 25.5C1880 11.4167 1894.33 0 1912 0C1929.67 0 1944 11.4167 1944 25.5C1944 39.5833 1929.67 51 1912 51C1894.33 51 1880 39.5833 1880 25.5Z" fill="white"/>
</svg>
