<svg width="1920" height="87" viewBox="0 0 1920 87" fill="none" xmlns="http://www.w3.org/2000/svg">
<g clip-path="url(#clip0_156_47)">
<path d="M0 75.3067C16.1542 75.3067 34.93 72.4405 50.7501 76.0254C60.0939 78.1428 84.2533 83.4973 92.8002 76.5645C107.242 64.8505 112.668 57.6884 133.763 56.0797C151.537 54.7242 167.081 54.417 182.7 62.3689C198.379 70.3508 215.767 80.8587 234.176 73.8691C243.633 70.2785 250.109 61.0374 259.188 56.6188C274.009 49.4056 292.885 48.6692 309.032 49.6108C331.51 50.9217 353.437 64.9839 376.276 68.119C404.349 71.9727 422.217 47.881 448.776 46.3763C474.476 44.9204 499.017 45.1029 522.545 56.0797C541.554 64.9481 559.313 76.3176 580.727 75.3067C585.939 75.0606 589.975 72.0684 593.776 68.8378C601.688 62.1152 611.835 62.3689 621.689 62.3689C646.829 62.3689 671.729 61.1 696.364 67.0409C721.63 73.1337 748.739 79.3265 775.027 74.5879C805.57 69.0823 829.308 45.2565 861.302 43.1419C890.2 41.2319 932.531 39.8753 957.727 55.9C971.673 64.769 980.107 76.609 997.784 78.3614C1014.3 79.999 1025.26 76.1948 1040.56 70.6347C1062.61 62.6195 1084.28 58.7254 1107.8 59.1344C1125.86 59.4485 1141.73 67.6744 1158.92 72.0722C1203.89 83.5782 1223.16 35.5935 1259.15 19.2429C1295.55 2.70192 1338.78 39.1541 1371.7 49.4311C1390.42 55.2719 1404.26 56.1319 1422.63 51.228C1440.7 46.4065 1464.56 42.3472 1482.99 46.9154C1510.11 53.6378 1534.04 73.515 1560.93 78.3614C1570.19 80.0301 1593.01 66.5167 1602.98 63.8064C1619.72 59.256 1635 55.9 1652.28 55.9C1672.74 55.9 1750.99 77.2413 1761.75 55.9C1772.52 34.5587 1835.9 46.9154 1835.9 46.9154C1857.4 51.6872 1869.45 54.3626 1890.95 59.1344C1912.45 63.9063 1936 43.1419 1936 43.1419" stroke="#7F47C7" stroke-width="16" stroke-linecap="round" stroke-dasharray="30 30"/>
<path d="M50.7501 76.0254C34.93 72.4405 16.1542 75.3067 0 75.3067V0H1936V43.1419C1936 43.1419 1912.45 63.9063 1890.95 59.1344L1835.9 46.9154C1835.9 46.9154 1772.52 34.5587 1761.75 55.9C1750.99 77.2412 1672.74 55.9 1652.28 55.9C1635 55.9 1619.72 59.256 1602.98 63.8064C1593.01 66.5167 1570.19 80.0301 1560.93 78.3614C1534.04 73.515 1510.11 53.6378 1482.99 46.9154C1464.56 42.3472 1440.7 46.4065 1422.63 51.228C1404.26 56.1319 1390.42 55.2719 1371.7 49.4311C1338.78 39.1541 1295.55 2.70192 1259.15 19.2429C1223.16 35.5935 1203.89 83.5782 1158.92 72.0722C1141.73 67.6744 1125.86 59.4485 1107.8 59.1344C1084.28 58.7253 1062.61 62.6195 1040.56 70.6347C1025.26 76.1948 1014.3 79.999 997.784 78.3614C980.107 76.609 971.672 64.769 957.727 55.9C932.531 39.8753 890.2 41.2319 861.302 43.1419C829.308 45.2565 805.57 69.0823 775.027 74.5879C748.739 79.3265 721.63 73.1337 696.364 67.0409C671.729 61.1 646.829 62.3689 621.689 62.3689C611.835 62.3689 601.688 62.1152 593.776 68.8378C589.975 72.0684 585.939 75.0606 580.727 75.3067C559.313 76.3176 541.554 64.9481 522.545 56.0797C499.017 45.1029 474.476 44.9204 448.776 46.3763C422.217 47.881 404.349 71.9727 376.276 68.119C353.437 64.9839 331.51 50.9217 309.032 49.6108C292.885 48.6692 274.009 49.4056 259.188 56.6188C250.109 61.0374 243.633 70.2785 234.176 73.8691C215.767 80.8587 198.379 70.3508 182.7 62.3689C167.081 54.417 151.537 54.7242 133.763 56.0797C112.668 57.6884 107.242 64.8505 92.8002 76.5645C84.2533 83.4973 60.0939 78.1428 50.7501 76.0254Z" fill="#121212"/>
</g>
<defs>
<clipPath id="clip0_156_47">
<rect width="1920" height="87" fill="white"/>
</clipPath>
</defs>
</svg>
