<svg xmlns="http://www.w3.org/2000/svg" width="907" height="774" fill="none"><path fill="#FF97A9" fill-rule="evenodd" stroke="#000" stroke-linecap="round" stroke-linejoin="round" stroke-miterlimit="1.5" stroke-width="16.21" d="M85.498 303.828s-26.52-87.99 81.667-99.893c0 0 26.538-103.918 127.497-77.188 0 0 18.714-117.929 155.748-65.072 0 0 49.301-67.013 121.663-11.269 0 0 98.041-32.107 108.459 54.772 0 0 45.217-15.126 66.718 5.838 21.502 20.964 11.636 64.175 11.313 63.707-.323-.468 46.756-17.55 61.15 34.98 14.394 52.53-16.797 72.608-16.797 72.608s36.598 2.987 59.874 66.478c23.276 63.491-57.818 110.055-86.534 89.864 0 0 7.799 86.805-81.677 57.36 0 0-65.801 71.179-118.081 36.806 0 0-76.53 67.908-176.829 23.086 0 0-66.262 46.14-108.828-6.346 0 0-102.182 53.853-149.98-33.113 0 0-106.334-4.66-63.711-90.128 0 0-41.235-1.984-36.741-62.279s42.667-58.156 45.089-60.211Z" clip-rule="evenodd"/><path fill="#FF6989" fill-rule="evenodd" d="M249.275 499.482s6.134-.052 12.691.864c2.323.324 4.641.914 6.766 1.693 2.386.875 4.89 1.793 5.278 5.118a6.018 6.018 0 0 0 6.016 6.016 6.018 6.018 0 0 0 6.015-6.016c1.199-10.28-4.179-16.45-11.334-19.699-3.581-1.626-7.874-2.188-11.95-2.054-8.436.277-15.909 3.148-15.909 3.148a5.6 5.6 0 0 0-4.251 6.678 5.601 5.601 0 0 0 6.678 4.252Z" clip-rule="evenodd"/><path fill="#FF6989" fill-rule="evenodd" d="M233.693 472.837s2.956 5.834 5.009 13.758c1.068 4.118 1.611 8.815 1.466 13.639-.118 3.947-.689 7.997-2.735 11.923-1.815 3.481-4.282 7.038-8.353 10.188a6.018 6.018 0 0 0-1.779 8.319 6.019 6.019 0 0 0 8.32 1.779c9.847-5.368 15.377-12.521 18.217-20.017 1.473-3.887 2.107-7.941 2.104-11.897-.006-6.618-1.701-13.007-3.938-18.395-3.87-9.318-9.062-15.608-9.062-15.608a5.602 5.602 0 0 0-7.78-1.469 5.602 5.602 0 0 0-1.469 7.78ZM136.423 375.83s8.452-.634 18.013 1.066c3.482.619 7.056 1.692 10.534 3.179 4.894 2.094 9.798 4.911 12.746 10.917a6.018 6.018 0 0 0 7.796 3.406 6.018 6.018 0 0 0 3.406-7.796c-3.101-10.362-9.647-17.043-17.367-20.844-4.887-2.406-10.316-3.454-15.402-3.727-12.038-.645-22.216 2.883-22.216 2.883a5.6 5.6 0 0 0-4.213 6.703 5.601 5.601 0 0 0 6.703 4.213Z" clip-rule="evenodd"/><path fill="#FF6989" fill-rule="evenodd" d="M106.769 332.306s8.164 10.707 14.318 25.142c2.323 5.448 4.242 11.449 5.458 17.67 1.798 9.198 2.151 18.999-3.03 28.545a6.02 6.02 0 0 0 1.972 8.276 6.02 6.02 0 0 0 8.276-1.972c8.295-11.978 10.277-25.186 8.297-37.601-1.219-7.649-4.093-14.925-7.455-21.333-8.265-15.755-19.597-26.309-19.597-26.309a5.6 5.6 0 0 0-7.91-.328 5.601 5.601 0 0 0-.329 7.91ZM710.03 424.799s5.434-4.667 12.572-9.4c2.632-1.746 5.537-3.402 8.478-4.923 2.634-1.362 5.163-2.842 7.957-3.356 1.713-.316 3.401-.718 5.167-.401a6.019 6.019 0 0 0 7.525-3.969 6.018 6.018 0 0 0-3.969-7.525c-4.707-2.08-9.692-2.282-14.712-1.58-3.026.422-6.03 1.341-8.878 2.669-3.961 1.846-7.614 4.465-10.718 7.245-7.562 6.771-12.083 14.145-12.083 14.145a5.6 5.6 0 0 0 .783 7.878 5.6 5.6 0 0 0 7.878-.783Z" clip-rule="evenodd"/><path fill="#FF6989" fill-rule="evenodd" d="M671.122 412.309s9.272 3.088 18.743 9.183a59.279 59.279 0 0 1 10.059 8.195c4.47 4.537 8.514 9.911 9.08 17.668a6.02 6.02 0 0 0 6.016 6.016 6.02 6.02 0 0 0 6.016-6.016c.856-11.733-3.199-21.289-9.63-28.461-4.022-4.485-9.095-7.88-14.132-10.402-12.092-6.053-24.01-7.172-24.01-7.172a5.6 5.6 0 0 0-6.566 4.424 5.6 5.6 0 0 0 4.424 6.565ZM711.81 276.846s-4.434 14.702-3.311 32.782c.655 10.545 3.208 22.219 9.458 32.655 4.515 7.54 10.976 14.455 19.839 19.776 9.657 5.797 22.262 9.723 38.571 10.606a6.017 6.017 0 0 0 1.157-11.976c-11.026-1.56-19.796-4.7-26.957-8.574-8.887-4.806-14.882-11.153-19.14-18.045-5.143-8.322-7.814-17.411-8.967-25.829-2.141-15.639.219-28.71.219-28.71a5.6 5.6 0 0 0-4.092-6.777 5.6 5.6 0 0 0-6.777 4.092ZM697.609 182.73s2.552-5.397 6.41-11.255c1.38-2.096 3.025-4.16 4.763-6.122 1.454-1.642 2.726-3.436 4.661-4.474 1.189-.638 2.328-1.434 3.801-1.647a6.019 6.019 0 0 0 6.016-6.016 6.018 6.018 0 0 0-6.016-6.015c-5.636-.74-10.542.915-14.972 3.456-1.839 1.054-3.509 2.396-4.997 3.931-2.744 2.828-4.889 6.287-6.404 9.743-3.566 8.135-4.167 15.863-4.167 15.863a5.6 5.6 0 0 0 4.184 6.72 5.6 5.6 0 0 0 6.721-4.184Z" clip-rule="evenodd"/><path fill="#FF6989" fill-rule="evenodd" d="M656.056 174.747s10.944 3.073 21.954 9.778c4.121 2.51 8.157 5.627 11.753 9.304 5.144 5.259 9.547 11.708 9.909 20.948a6.02 6.02 0 0 0 5.866 6.162 6.018 6.018 0 0 0 6.162-5.866c1.188-13.391-3.29-24.082-10.448-32.029-4.558-5.06-10.325-8.857-16.071-11.652-13.683-6.654-27.306-7.693-27.306-7.693a5.601 5.601 0 0 0-6.433 4.615 5.601 5.601 0 0 0 4.614 6.433ZM661.088 226.852s2.863 12.893 3.347 28.56c.183 5.946-.046 12.279-.849 18.525-.629 4.898-1.449 9.757-3.224 14.269-1.709 4.346-3.908 8.478-7.347 11.905a6.02 6.02 0 0 0-.586 8.488 6.018 6.018 0 0 0 8.487.586c6.452-4.914 10.968-11.346 14.11-18.516 2.013-4.591 3.407-9.51 4.165-14.539 1.103-7.318.954-14.844.168-21.79-1.95-17.251-7.615-30.926-7.615-30.926a5.6 5.6 0 0 0-7.047-3.609 5.602 5.602 0 0 0-3.609 7.047ZM370.378 488.573s2.798 7.449 4.848 16.335c.321 1.388.605 2.809.943 4.23.477 2.011 1.008 4.013 1.331 6.02.539 3.343 1.225 6.567.139 9.485a6.02 6.02 0 0 0 2.598 8.101 6.02 6.02 0 0 0 8.102-2.598c2.542-3.713 3.695-8.172 4.172-12.955a32.677 32.677 0 0 0-.26-8.353c-.628-3.937-1.929-7.801-3.463-11.249-3.831-8.607-8.753-14.683-8.753-14.683a5.603 5.603 0 0 0-7.662-1.995 5.603 5.603 0 0 0-1.995 7.662Z" clip-rule="evenodd"/><path fill="#FF6989" fill-rule="evenodd" d="M337.731 512.621s10.823-1.654 24.221-8.51c6.768-3.464 14.216-8.235 21.013-14.898a74.249 74.249 0 0 0 12.679-16.56c4.632-8.217 8.068-17.925 9.788-29.243a6.019 6.019 0 0 0-4.661-7.117 6.018 6.018 0 0 0-7.117 4.662c-2.502 9.393-6.535 17.104-10.952 23.787-3.364 5.09-7.106 9.448-10.896 13.32-5.64 5.761-11.411 10.41-16.837 13.88-10.847 6.936-19.678 9.752-19.678 9.752a5.6 5.6 0 0 0-4.244 6.683 5.6 5.6 0 0 0 6.684 4.244ZM531.313 466.686s-8.21 10.461-18.44 21.6c-1.659 1.807-3.364 3.631-5.04 5.487-2.483 2.749-4.942 5.51-7.43 8.046-4.76 4.853-9.19 9.229-13.753 10.679a6.017 6.017 0 0 0 2.773 11.708c5.47-.844 11.552-3.948 17.669-8.409a74.42 74.42 0 0 0 9.075-7.782c4.1-4.15 7.849-8.837 11.117-13.38 8.262-11.484 13.487-21.957 13.487-21.957a5.6 5.6 0 0 0-1.733-7.725 5.6 5.6 0 0 0-7.725 1.733Z" clip-rule="evenodd"/><path fill="#FF6989" fill-rule="evenodd" d="M493.699 449.323s11.44 13.035 30.54 21.376c10.46 4.568 23.216 7.749 37.42 6.547 9.244-.782 19.127-3.46 29.249-8.789 11.067-5.828 22.439-14.922 33.876-28.167a6.018 6.018 0 0 0-.303-8.502 6.018 6.018 0 0 0-8.502.303c-11.01 10.968-21.744 18.084-31.811 22.777-8.44 3.934-16.435 5.925-23.951 6.668-11.587 1.146-22.017-.71-30.788-3.872-16.832-6.068-27.658-16.099-27.658-16.099a5.6 5.6 0 0 0-7.915-.157 5.6 5.6 0 0 0-.157 7.915Z" clip-rule="evenodd"/><path fill="#FF6989" fill-rule="evenodd" d="M543.387 425.563a6.018 6.018 0 0 0-5.745 6.009 6.018 6.018 0 0 0 6.016 6.016c2.891.141 7.872-1.723 12.638-5.737 6.168-5.195 11.886-14.135 11.706-24.868-.157-9.434-5.098-20.6-19.656-31.725-12.469-8.694-23.367-11.806-32.462-11.839-20.643-.076-32.102 14.528-32.102 14.528a5.601 5.601 0 0 0 .616 7.893 5.601 5.601 0 0 0 7.893-.617s8.819-8.946 23.023-7.837c6.795.53 14.703 3.483 23.655 10.526 4.281 3.157 7.438 6.302 9.733 9.352 2.763 3.669 4.246 7.096 4.507 10.382.486 6.13-2.45 11.394-5.7 14.677-1.08 1.092-2.117 2.036-3.126 2.638-.391.234-1.057.29-.996.602Z" clip-rule="evenodd"/><path fill="#FF6989" fill-rule="evenodd" d="M419.334 393.726s12.699-5.422 27.615-8.884c5.918-1.374 12.182-2.373 18.187-2.578 4.762-.163 9.351-.043 13.402 1.531 3.74 1.452 7.142 3.72 9.53 7.728a6.018 6.018 0 0 0 8.088 2.637 6.018 6.018 0 0 0 2.637-8.089c-6.247-14.169-19.411-19.63-34.011-19.561-7.246.035-14.827 1.674-21.806 3.906-16.052 5.131-28.951 13.452-28.951 13.452a5.601 5.601 0 0 0-2.275 7.584 5.602 5.602 0 0 0 7.584 2.274Z" clip-rule="evenodd"/><path fill="#FF6989" fill-rule="evenodd" d="M380.137 409.466s3.872-5.328 9.538-9.441c2.734-1.984 6.014-3.411 9.712-3.34 2.886.056 5.978 1.12 9.505 3.777 3.058 2.303 6.477 5.284 9.971 9.677a6.018 6.018 0 0 0 8.338 1.69 6.018 6.018 0 0 0 1.69-8.338c-4.382-7.969-8.916-13.33-13.368-16.805-5.475-4.273-11.031-5.816-16.015-5.776-7.438.059-14.01 3.646-18.873 8.387-6.77 6.599-10.359 14.867-10.359 14.867a5.6 5.6 0 0 0 2.28 7.581 5.6 5.6 0 0 0 7.581-2.279ZM498.651 228.505s3.921 6.7 4.159 16.019c.118 4.626-1.038 9.807-3.946 15.443-1.831 3.55-4.334 7.265-7.866 11.117-4.255 4.64-9.634 9.617-17.026 14.457a6.018 6.018 0 0 0-2.273 8.198 6.018 6.018 0 0 0 8.198 2.273c9.282-4.488 16.444-9.238 21.843-14.22 5.232-4.827 8.855-9.868 11.231-14.763 4.164-8.577 4.784-16.767 3.821-23.657-1.831-13.102-9.204-21.611-9.204-21.611a5.6 5.6 0 0 0-7.84-1.097 5.6 5.6 0 0 0-1.097 7.841ZM503.12 166.688s10.694.756 23.487-2.584c7.253-1.893 15.153-5.122 22.002-10.493 5.104-4.003 9.629-9.215 12.863-15.724 3.806-7.662 5.926-17.132 5.226-28.778a6.02 6.02 0 0 0-6.017-6.016 6.02 6.02 0 0 0-6.016 6.016c-.461 7.323-2.348 13.276-4.759 18.348-2.817 5.927-6.826 10.301-11.172 13.851a59.016 59.016 0 0 1-16.379 9.427c-10.376 3.911-19.237 4.757-19.237 4.757a5.6 5.6 0 0 0-5.597 5.599 5.602 5.602 0 0 0 5.599 5.597Z" clip-rule="evenodd"/><path fill="#FF6989" fill-rule="evenodd" d="M450.031 122.777s10.45 2.211 21.48 8.501c5.869 3.346 11.736 8.036 16.363 14.296 3.791 5.127 6.72 11.341 7.692 19.273.796 6.491.66 13.967-1.352 22.694a6.019 6.019 0 0 0 4.115 7.447 6.018 6.018 0 0 0 7.446-4.114c4.439-12.867 5.353-23.819 3.92-33.075-1.333-8.614-4.715-15.836-9.203-21.696-6.2-8.094-14.538-13.643-22.589-17.314-13.69-6.243-26.434-7.115-26.434-7.115a5.6 5.6 0 0 0-6.271 4.832 5.601 5.601 0 0 0 4.833 6.271ZM383.384 107.536s19.967-.376 28.511 16.277c1.656 3.225 2.815 7.099 3.499 11.758.393 2.677.644 5.592.702 8.793.168 9.33-1.11 20.862-5.129 35.208a6.018 6.018 0 0 0 3.821 7.601 6.018 6.018 0 0 0 7.601-3.821c5.978-15.591 8.799-28.339 9.257-38.788.18-4.111-.046-7.884-.563-11.323-1.016-6.773-3.113-12.341-5.818-16.867-5.032-8.423-11.996-13.535-18.975-16.422-12.027-4.977-23.696-3.585-23.696-3.585a5.602 5.602 0 0 0-5.189 5.98 5.6 5.6 0 0 0 5.979 5.189ZM288.193 215.322s7.884 5.29 18.861 6.266c8.512.757 18.808-1.202 28.628-9.88 3.817-3.373 7.549-7.867 10.908-13.771 1.698-2.985 3.296-6.354 4.715-10.147 3.712-9.926 6.45-22.732 7.985-39.119a6.019 6.019 0 0 0-5.121-6.794 6.02 6.02 0 0 0-6.794 5.122c-2.768 14.763-6.527 26.066-10.462 34.9a96.402 96.402 0 0 1-4.122 8.216c-2.455 4.348-4.951 7.793-7.592 10.448-14.119 14.196-31.22 5.174-31.22 5.174a5.6 5.6 0 0 0-7.685 1.9 5.6 5.6 0 0 0 1.899 7.685ZM179.849 282.582s6.482 6.064 17.072 9.001c5.611 1.555 12.395 2.146 19.74.33 4.573-1.131 9.387-3.263 14.112-6.734 5.061-3.719 10.049-8.959 14.859-16.121a6.019 6.019 0 0 0-.976-8.451 6.02 6.02 0 0 0-8.452.975c-3.869 4.126-7.766 7.043-11.379 9.475-4.303 2.897-8.379 4.553-12.179 5.599-4.795 1.32-9.128 1.682-12.922 1.18-7.651-1.015-12.937-4.041-12.937-4.041a5.6 5.6 0 0 0-7.862.924 5.6 5.6 0 0 0 .924 7.863Z" clip-rule="evenodd"/><path fill="#FF6989" fill-rule="evenodd" d="M252.074 174.045s-11.79 10.643-19.959 27.894c-4.577 9.667-8.02 21.401-7.594 34.288.292 8.8 2.413 18.16 7.131 27.619 5.211 10.448 13.666 21.052 26.37 31.43a6.018 6.018 0 0 0 8.492-.507 6.02 6.02 0 0 0-.507-8.493c-10.21-9.83-16.587-19.59-20.609-28.841-3.315-7.627-4.778-14.932-5.114-21.851-.506-10.449 1.573-20.01 4.718-28.097 5.965-15.342 14.972-25.509 14.972-25.509a5.6 5.6 0 0 0 .017-7.917 5.601 5.601 0 0 0-7.917-.016Z" clip-rule="evenodd"/><path fill="#000" fill-rule="evenodd" d="M372.639 281.489s8.254-13.854 26.737-19.076c9.051-2.556 20.489-3.339 34.89.654a7.315 7.315 0 0 0 9.097-4.915 7.315 7.315 0 0 0-4.916-9.096c-17.767-5.681-32.198-5.368-43.5-2.195a56.16 56.16 0 0 0-16.515 7.714c-13.13 8.956-18.464 20.313-18.464 20.313a7.147 7.147 0 0 0 3.035 9.636 7.147 7.147 0 0 0 9.636-3.035ZM556.477 239.622s5.14-6.099 13.324-11.015c4.3-2.584 9.502-4.752 15.381-5.42 8.778-.996 19.004 1.556 30.209 11.623a7.315 7.315 0 0 0 10.334-.352 7.316 7.316 0 0 0-.353-10.334c-15.123-14.681-29.685-18.343-41.975-17.009-8.462.919-15.932 4.313-21.938 8.315-10.417 6.943-16.419 15.63-16.419 15.63a7.147 7.147 0 0 0 1.437 10 7.147 7.147 0 0 0 10-1.438ZM478.611 329.255s8.634 4.7 20.973 6.53c6.631.983 14.337 1.128 22.234-.744 12.201-2.891 24.923-10.438 35.032-26.351a7.314 7.314 0 0 0-2.05-10.134 7.315 7.315 0 0 0-10.134 2.05c-7.946 11.477-17.502 16.553-26.537 18.691-17.282 4.088-33.205-2.859-33.205-2.859a7.146 7.146 0 0 0-9.565 3.252 7.147 7.147 0 0 0 3.252 9.565Z" clip-rule="evenodd"/><path stroke="#000" stroke-linecap="round" stroke-linejoin="round" stroke-miterlimit="1.5" stroke-width="16.21" d="M436.357 572.337s6.2 158.332 14.053 161.194"/><path fill="#EBEBEB" fill-rule="evenodd" stroke="#000" stroke-linecap="round" stroke-linejoin="round" stroke-miterlimit="1.5" stroke-width="15.957" d="M434.549 730.986c10.309-3.131 11.208-6.349 13.515-2.904 7.264 10.851-1.397 8.61-11.706 11.741-10.31 3.131-18.361.094-19.566-3.873-1.204-3.968 7.448-1.834 17.757-4.964Z" clip-rule="evenodd"/><path stroke="#000" stroke-linecap="round" stroke-linejoin="round" stroke-miterlimit="1.5" stroke-width="16.21" d="M528.428 565.632s15.925 157.024 15.207 157.411"/><path fill="#EBEBEB" fill-rule="evenodd" stroke="#000" stroke-linecap="round" stroke-linejoin="round" stroke-miterlimit="1.5" stroke-width="15.957" d="M559.92 723.28c-10.25-3.317-11.09-6.551-13.459-3.148-7.461 10.716 1.239 8.634 11.49 11.951 10.251 3.318 18.356.428 19.633-3.517 1.276-3.945-7.413-1.968-17.664-5.286Z" clip-rule="evenodd"/><path fill="#EA353B" fill-rule="evenodd" stroke="#000" stroke-linecap="round" stroke-linejoin="round" stroke-miterlimit="1.5" stroke-width="16.21" d="M280.88 368.758c4.645-27.482 31.485-38.102 49.291-32.326 17.807 5.776 26.58 27.948 21.932 55.43-2.814 20.345-20.39 46.532-36.132 65.583-24.516-3.122-55.252-10.193-71.225-23.105-22.192-16.861-30.965-39.033-21.932-55.429 9.033-16.396 35.873-27.016 58.066-10.153Z" clip-rule="evenodd"/><path stroke="#000" stroke-linecap="round" stroke-linejoin="round" stroke-miterlimit="1.5" stroke-width="16.21" d="M147.416 425.654s63.78 54.855 132.611-9.864"/><path fill="#EBEBEB" fill-rule="evenodd" stroke="#000" stroke-linecap="round" stroke-linejoin="round" stroke-miterlimit="1.5" stroke-width="16.048" d="M284.088 407.716c2.382-9.921 11.634-18.43 14.599-14.246 1.279 1.805-2.667 15.134-9.677 20.581-7.011 5.448-13.805 8.451-15.164 6.702-1.358-1.748 8.021-3.789 10.242-13.037Z" clip-rule="evenodd"/><path stroke="#000" stroke-linecap="round" stroke-linejoin="round" stroke-miterlimit="1.5" stroke-width="16.21" d="M770.066 278.188s-16.854 68.143-89.584 85.229"/><path fill="#EBEBEB" fill-rule="evenodd" stroke="#000" stroke-linecap="round" stroke-linejoin="round" stroke-miterlimit="1.5" stroke-width="16.027" d="M665.022 363.417c9.27-1.453 15.702-.15 15.964 2.77.262 2.92-5.831 5.856-13.597 6.552-7.766.696-14.587-5.089-15.206-7.956-2.008-9.305 5.136-.158 12.839-1.366Z" clip-rule="evenodd"/></svg>